<?xml version="1.0" encoding="UTF-8"?>
<!DOCTYPE svg PUBLIC "-//W3C//DTD SVG 1.1//EN" "http://www.w3.org/Graphics/SVG/1.1/DTD/svg11.dtd">
<!-- Creator: CorelDRAW X6 -->
<svg xmlns="http://www.w3.org/2000/svg" xml:space="preserve" width="2.30551in" height="0.574331in" version="1.1" style="shape-rendering:geometricPrecision; text-rendering:geometricPrecision; image-rendering:optimizeQuality; fill-rule:evenodd; clip-rule:evenodd"
viewBox="0 0 2328 580"
 xmlns:xlink="http://www.w3.org/1999/xlink">
 <defs>
  <style type="text/css">
   <![CDATA[
    .fil1 {fill:#201E1E}
    .fil0 {fill:#0000AD}
    .fil2 {fill:#FF001F}
   ]]>
  </style>
 </defs>
 <g id="Capa_x0020_1">
  <metadata id="CorelCorpID_0Corel-Layer"/>
  <path class="fil0" d="M0 195l0 195 5 -2c31,-10 119,-42 126,-46 2,-1 6,-3 8,-4 3,-1 5,-2 5,-2 0,0 -2,-3 -3,-4 -1,-1 -3,-5 -5,-11l-4 -10 -2 -1c-1,-1 -6,-3 -9,-5l-7 -4 -4 4 -3 4 -6 2 -6 2 -2 -2c-1,-1 -3,-4 -5,-6l-3 -4 2 -4c1,-2 2,-4 2,-5 0,-1 -2,-5 -12,-21 -4,-6 -7,-11 -7,-11 0,0 -3,-1 -6,-2l-6 -2 -5 -9c-4,-9 -5,-9 -8,-21 -2,-6 -3,-12 -3,-13 0,-1 1,-5 2,-10 2,-8 2,-9 2,-17l0 -8 1 0c1,0 8,1 16,2l15 2 8 -5 8 -5 0 -14 0 -14 4 0 4 0 4 -6 4 -6 -5 -8 -5 -8 1 -3c1,-4 0,-3 13,-4 5,0 9,-1 10,-1l2 0 0 -6 0 -6 2 -3c2,-3 2,-3 3,-8 1,-9 1,-8 5,-8l3 0 2 -3c1,-2 2,-3 3,-3 0,0 4,3 8,6 4,3 9,6 11,8l3 2 7 1c4,0 7,1 7,1 0,0 3,4 5,8l5 7 10 3 10 3 2 -1c1,-1 4,-2 6,-4 3,-2 5,-3 5,-3 0,0 1,1 2,3 1,1 2,3 2,3 0,0 1,0 2,1l2 1 5 -3 5 -3 7 1 7 1 3 4c1,2 3,5 3,5 1,1 9,3 10,3 1,0 2,0 4,-1l2 -1 10 -15c5,-9 10,-16 10,-16 0,0 4,-1 11,-2l10 -1 14 4c7,2 14,4 14,4 1,0 23,25 30,33 0,0 1,3 2,5l1 4 -4 8 -4 8 1 8c1,6 1,8 2,11 1,3 1,3 1,10l0 7 -5 5 -5 5 -1 5 -1 5 3 5c2,3 3,5 3,5 0,0 -2,1 -4,2l-4 2 -1 3c0,2 -1,3 -1,4 0,1 1,2 4,6 2,3 5,6 6,8 1,2 2,4 2,4 0,0 1,0 3,1 2,0 2,0 4,3 1,2 2,3 2,6 0,2 1,4 1,5 0,1 3,4 6,7l5 6 12 -2c6,-1 15,-3 18,-3l6 -1 4 -8c2,-5 4,-8 4,-8 0,0 2,3 4,7 2,4 4,7 4,7 0,0 4,0 9,-1 5,-1 15,-2 23,-3 8,-1 14,-2 15,-2l2 0 0 -4c0,-2 -1,-8 -1,-12 -3,-56 -18,-105 -44,-144 -15,-23 -31,-39 -52,-53 -30,-19 -70,-31 -118,-35 -18,-1 -30,-2 -152,-2l-123 0 0 195 0 0z"/>
  <path class="fil1" d="M2075 23c-66,2 -116,13 -149,34 -11,7 -22,17 -31,26 -21,25 -32,60 -33,103l0 10 8 0c23,0 124,-1 148,-1 51,-1 69,-1 71,-2 4,-1 12,-3 19,-4 7,-1 11,-1 32,-1 45,0 100,2 157,8 6,1 12,1 12,1 0,0 1,-16 1,-78 0,-43 0,-78 0,-78 0,0 -6,-1 -12,-2 -55,-8 -106,-13 -158,-15 -18,-1 -52,-1 -65,-1l0 0z"/>
  <path class="fil1" d="M608 40c0,1 -14,48 -30,104 -29,101 -29,102 -28,102 2,0 26,-4 42,-7 38,-6 81,-12 119,-16 24,-3 25,-3 25,-3 0,0 5,-22 11,-49 6,-27 11,-48 11,-49 0,0 0,0 1,1 12,55 20,92 20,92 0,0 6,0 14,-1 42,-4 97,-8 148,-11 11,-1 20,-1 20,-1 0,0 -10,-37 -22,-81 -12,-45 -22,-82 -23,-82 0,-1 -8,-1 -154,-1l-153 0 -1 3 0 0z"/>
  <path class="fil1" d="M1084 81c5,24 12,59 16,79l7 36 6 0c3,0 15,0 26,-1 38,-1 69,-1 114,-2 25,0 45,-1 45,-1 0,0 -25,-154 -25,-155 0,0 -44,0 -98,0l-98 0 9 43 0 0z"/>
  <path class="fil1" d="M1372 39c0,1 -6,35 -14,77 -7,41 -13,76 -14,76l0 1 30 0c17,0 65,0 106,1 42,0 76,0 76,0 0,0 -24,-140 -27,-153l-1 -3 -79 0 -79 0 0 1 0 0z"/>
  <path class="fil1" d="M1629 47c-1,5 -6,40 -12,78l-11 69 3 0c3,0 125,1 162,1l23 0 16 -78c9,-43 16,-79 16,-79 0,-1 -2,-1 -98,-1l-98 0 -2 9 0 0z"/>
  <path class="fil1" d="M2066 249c-2,0 -27,1 -67,2 -19,0 -45,1 -111,2 -22,0 -22,0 -22,1 0,2 4,20 6,26 6,20 14,37 25,48 18,21 49,34 89,39 15,2 19,2 64,2 46,0 47,0 56,3 10,2 16,7 19,14 2,5 3,10 3,18 0,9 -1,13 -4,19 -6,11 -17,16 -46,17 -15,1 -68,0 -101,-1 -22,-1 -48,-3 -65,-5 -10,-1 -24,-3 -26,-4 -1,0 -1,3 -1,68l0 68 2 0c13,2 54,6 80,9 61,5 142,7 182,5 54,-3 95,-13 122,-31 22,-15 37,-35 46,-64 11,-33 13,-83 6,-124 -5,-31 -16,-54 -32,-69 -20,-19 -59,-29 -125,-33 -5,0 -20,-1 -33,-1 -14,0 -27,-1 -30,-1 -10,-1 -22,-4 -27,-7 -2,-1 -3,-1 -6,-1 -2,0 -5,0 -5,0l0 0z"/>
  <path class="fil1" d="M1362 253l-28 0 0 2c0,1 -3,19 -7,40 -6,32 -7,41 -7,38 0,-1 -13,-79 -13,-80 0,0 -54,1 -88,1 -45,1 -98,2 -99,3 0,0 54,276 60,305l1 3 107 0c102,0 107,0 108,-1 0,0 13,-66 28,-146 15,-80 28,-145 28,-146l0 -1 0 1c0,1 12,66 26,146 14,80 26,145 26,146 0,0 22,1 106,0l106 0 33 -156c18,-86 33,-156 33,-156 0,0 -42,0 -93,0l-93 0 -6 40c-3,22 -6,40 -7,41l0 1 0 -1c0,-1 -14,-80 -14,-81 0,0 -148,0 -207,0l0 0z"/>
  <path class="fil1" d="M957 265c-70,4 -163,12 -164,13 0,0 12,57 15,70l0 1 -49 0c-27,0 -49,0 -49,0 0,0 3,-14 7,-32 4,-17 7,-32 7,-32 0,0 -66,8 -97,12 -40,5 -94,14 -95,15 0,0 -73,254 -73,254 0,0 46,0 103,0l103 0 9 -41c5,-22 9,-41 9,-41 0,-1 4,-1 77,-1l77 0 8 38c4,21 8,40 9,41l1 3 104 0c62,0 104,0 104,0 0,0 -80,-291 -82,-299l-1 -2 -3 0c-2,0 -10,0 -17,1l0 0z"/>
  <path class="fil2" d="M484 308c-1,0 -7,1 -14,3 -38,7 -95,19 -129,28l-2 0 -1 5c-1,6 -5,19 -7,26 -1,4 -2,6 -1,6 0,0 0,1 0,1 -1,0 -2,4 -4,7 -3,8 -11,24 -14,29 -5,8 -11,15 -19,21l-2 2 0 14 0 14 -5 23c-3,13 -5,23 -5,24 0,1 -1,0 -3,-8l-1 -6 -6 0 -6 0 -4 -4 -4 -4 -1 -4c0,-2 -2,-6 -3,-8l-2 -5 -4 -2 -4 -2 -6 4c-3,2 -7,5 -8,5l-2 2 -6 -3c-3,-2 -6,-3 -6,-3 0,0 1,-2 2,-3 2,-3 2,-3 8,-6l6 -3 -1 -1 -1 -1 -7 0c-4,0 -23,0 -42,0l-36 0 0 -31c0,-17 0,-31 0,-31 0,0 -19,6 -41,13 -41,13 -69,22 -92,29l-12 4 0 69 0 69 126 0c136,0 129,0 150,-3 45,-6 82,-19 112,-42 14,-10 29,-26 40,-41 32,-45 53,-106 60,-173 1,-5 1,-10 1,-12 0,-2 0,-2 -1,-2 -1,0 -2,0 -3,0l0 0z"/>
 </g>
</svg>
